<?xml version="1.0" encoding="UTF-8" standalone="no"?><!DOCTYPE svg PUBLIC "-//W3C//DTD SVG 1.1//EN" "http://www.w3.org/Graphics/SVG/1.1/DTD/svg11.dtd"><svg width="100%" height="100%" viewBox="0 0 472 325" version="1.1" xmlns="http://www.w3.org/2000/svg" xmlns:xlink="http://www.w3.org/1999/xlink" xml:space="preserve" style="fill-rule:evenodd;clip-rule:evenodd;stroke-linejoin:round;stroke-miterlimit:1.41421;"><g><path d="M379.42,324.554l-26.455,-60.841c0,0 2.761,0.1 4.134,0.1c13.01,0 23.222,-2.781 30.636,-8.343c7.413,-5.562 11.119,-13.078 11.119,-22.548c0,-9.47 -3.933,-16.986 -11.8,-22.548c-7.867,-5.562 -23.45,-11.199 -46.748,-16.911c-7.101,-1.677 -20.203,-5.323 -20.203,-5.323l-66.321,-152.523c0,0 7.723,-7.818 12.316,-11.265c21.635,-16.235 48.64,-24.352 81.016,-24.352c21.18,0 42.36,3.608 63.541,10.823c21.18,7.215 39.638,17.437 55.372,30.666l-35.856,51.409c-27.534,-20.744 -55.977,-31.116 -85.327,-31.116c-11.8,0 -21.105,2.781 -27.913,8.343c-6.808,5.562 -10.212,12.927 -10.212,22.097c0,9.169 4.161,16.46 12.482,21.871c8.321,5.412 27.534,11.801 57.641,19.166c30.106,7.366 53.48,18.415 70.122,33.146c16.642,14.732 24.963,36.227 24.963,64.488c0,28.26 -10.666,51.184 -31.998,68.771c-16.256,13.404 -36.423,21.7 -60.5,24.889c-0.003,0 -0.009,0.001 -0.009,0.001Z" style="fill:#e83b3f;"/><path d="M272.54,324.554l-30.077,-69.87l-135.575,0l-30.077,69.87l-76.811,0l139.74,-323.439l69.871,0l139.74,323.439l-76.811,0Zm-97.633,-227.194l-40.719,93.931l80.975,0l-40.256,-93.931Z" style="fill:#e83b3f;fill-rule:nonzero;"/></g></svg>