<?xml version="1.0" encoding="UTF-8" standalone="no"?><!DOCTYPE svg PUBLIC "-//W3C//DTD SVG 1.1//EN" "http://www.w3.org/Graphics/SVG/1.1/DTD/svg11.dtd"><svg width="100%" height="100%" viewBox="0 0 942 645" version="1.1" xmlns="http://www.w3.org/2000/svg" xmlns:xlink="http://www.w3.org/1999/xlink" xml:space="preserve" style="fill-rule:evenodd;clip-rule:evenodd;stroke-linejoin:round;stroke-miterlimit:1.41421;"><g id="AS"><path id="S" d="M757.257,645l-52.575,-120.911c0,0 5.488,0.198 8.215,0.198c25.857,0 46.152,-5.527 60.884,-16.58c14.733,-11.053 22.099,-25.99 22.099,-44.811c0,-18.82 -7.817,-33.757 -23.452,-44.811c-15.634,-11.053 -46.602,-22.256 -92.904,-33.608c-14.112,-3.333 -40.15,-10.579 -40.15,-10.579l-131.803,-303.115c0,0 15.349,-15.538 24.477,-22.387c42.995,-32.264 96.663,-48.396 161.005,-48.396c42.093,0 84.186,7.17 126.279,21.509c42.093,14.34 78.774,34.654 110.043,60.943l-71.258,102.169c-54.72,-41.226 -111.245,-61.839 -169.574,-61.839c-23.451,0 -41.942,5.526 -55.472,16.58c-13.53,11.053 -20.295,25.691 -20.295,43.914c0,18.224 8.269,32.712 24.805,43.467c16.536,10.755 54.721,23.451 114.553,38.089c59.832,14.638 106.284,36.596 139.357,65.872c33.073,29.277 49.61,71.996 49.61,128.159c0,56.163 -21.197,101.721 -63.591,136.673c-32.307,26.637 -72.386,43.124 -120.235,49.462c-0.006,0 -0.018,0.002 -0.018,0.002Z" style="fill:#fff;"/><path id="A" d="M543.491,645l-59.978,-139.333l-270.361,0l-59.978,139.333l-153.174,0l278.666,-644.991l139.333,0l278.666,644.991l-153.174,0Zm-194.697,-453.063l-81.201,187.315l161.479,0l-80.278,-187.315Z" style="fill:#fff;fill-rule:nonzero;"/></g></svg>