<?xml version="1.0" encoding="UTF-8" standalone="no"?>
<!DOCTYPE svg PUBLIC "-//W3C//DTD SVG 1.1//EN" "http://www.w3.org/Graphics/SVG/1.1/DTD/svg11.dtd">
<svg width="100%" height="100%" viewBox="0 0 2363 572" version="1.1" xmlns="http://www.w3.org/2000/svg" xmlns:xlink="http://www.w3.org/1999/xlink" xml:space="preserve" xmlns:serif="http://www.serif.com/" style="fill-rule:evenodd;clip-rule:evenodd;stroke-linejoin:round;stroke-miterlimit:1.41421;">
    <g transform="matrix(1,0,0,1,-776.256,-326.785)">
        <g>
            <g transform="matrix(1.00376,0,0,1.04986,-5.51077,-19.3955)">
                <path d="M1239.78,351.106C1239.78,339.314 1229.76,329.74 1217.43,329.74L801.183,329.74C788.849,329.74 778.835,339.314 778.835,351.106L778.835,367.629C778.835,379.422 788.849,388.996 801.183,388.996L1217.43,388.996C1229.76,388.996 1239.78,379.422 1239.78,367.629L1239.78,351.106Z" style="fill:rgb(50,53,172);"/>
            </g>
            <g transform="matrix(0.718938,0,0,1.04986,614.743,144.654)">
                <path d="M1239.78,351.106C1239.78,339.314 1225.8,329.74 1208.58,329.74L810.036,329.74C792.816,329.74 778.835,339.314 778.835,351.106L778.835,367.629C778.835,379.422 792.816,388.996 810.036,388.996L1208.58,388.996C1225.8,388.996 1239.78,379.422 1239.78,367.629L1239.78,351.106Z" style="fill:rgb(243,0,77);"/>
            </g>
            <g transform="matrix(0.348579,0,0,1.04986,1542.78,144.654)">
                <path d="M1239.78,351.106C1239.78,339.314 1210.94,329.74 1175.43,329.74L843.187,329.74C807.67,329.74 778.835,339.314 778.835,351.106L778.835,367.629C778.835,379.422 807.67,388.996 843.187,388.996L1175.43,388.996C1210.94,388.996 1239.78,379.422 1239.78,367.629L1239.78,351.106Z" style="fill:rgb(50,53,172);"/>
            </g>
            <g transform="matrix(1.38461,0,0,1.04986,1421.98,144.654)">
                <path d="M1239.78,351.106C1239.78,339.314 1232.52,329.74 1223.58,329.74L795.036,329.74C786.094,329.74 778.835,339.314 778.835,351.106L778.835,367.629C778.835,379.422 786.094,388.996 795.036,388.996L1223.58,388.996C1232.52,388.996 1239.78,379.422 1239.78,367.629L1239.78,351.106Z" style="fill:rgb(243,0,77);"/>
            </g>
            <g transform="matrix(0.966793,0,0,1.04986,1939.98,317.137)">
                <path d="M1239.78,351.106C1239.78,339.314 1229.38,329.74 1216.58,329.74L802.037,329.74C789.232,329.74 778.835,339.314 778.835,351.106L778.835,367.629C778.835,379.422 789.232,388.996 802.037,388.996L1216.58,388.996C1229.38,388.996 1239.78,379.422 1239.78,367.629L1239.78,351.106Z" style="fill:rgb(50,53,172);"/>
            </g>
            <g transform="matrix(1.57919,0,0,1.04986,1180.74,489.62)">
                <path d="M1239.78,351.106C1239.78,339.314 1233.41,329.74 1225.57,329.74L793.04,329.74C785.2,329.74 778.835,339.314 778.835,351.106L778.835,367.629C778.835,379.422 785.2,388.996 793.04,388.996L1225.57,388.996C1233.41,388.996 1239.78,379.422 1239.78,367.629L1239.78,351.106Z" style="fill:rgb(243,0,77);"/>
            </g>
            <g transform="matrix(0.480352,0,0,1.04986,1600.83,317.137)">
                <path d="M1239.78,351.106C1239.78,339.314 1218.85,329.74 1193.08,329.74L825.534,329.74C799.76,329.74 778.835,339.314 778.835,351.106L778.835,367.629C778.835,379.422 799.76,388.996 825.534,388.996L1193.08,388.996C1218.85,388.996 1239.78,379.422 1239.78,367.629L1239.78,351.106Z" style="fill:rgb(149,0,166);"/>
            </g>
            <g transform="matrix(1.02143,0,0,1,-56.6137,0)">
                <path d="M3128.18,342.338C3128.18,333.754 3121.36,326.785 3112.95,326.785L2169.33,326.785C2160.93,326.785 2154.1,333.754 2154.1,342.338L2154.1,373.443C2154.1,382.027 2160.93,388.996 2169.33,388.996L3112.95,388.996C3121.36,388.996 3128.18,382.027 3128.18,373.443L3128.18,342.338Z" style="fill:rgb(149,0,166);"/>
            </g>
        </g>
    </g>
</svg>
